<?xml version="1.0" encoding="UTF-8" standalone="no"?>
<svg
   xmlns:dc="http://purl.org/dc/elements/1.1/"
   xmlns:cc="http://creativecommons.org/ns#"
   xmlns:rdf="http://www.w3.org/1999/02/22-rdf-syntax-ns#"
   xmlns:svg="http://www.w3.org/2000/svg"
   xmlns="http://www.w3.org/2000/svg"
   xmlns:xlink="http://www.w3.org/1999/xlink"
   xmlns:sodipodi="http://sodipodi.sourceforge.net/DTD/sodipodi-0.dtd"
   xmlns:inkscape="http://www.inkscape.org/namespaces/inkscape"
   width="142.52222mm"
   height="142.52222mm"
   viewBox="0 0 142.52222 142.52222"
   version="1.1"
   id="svg8"
   inkscape:version="1.0.1 (c497b03c, 2020-09-10)"
   sodipodi:docname="icon.svg">
  <defs
     id="defs2">
    <linearGradient
       inkscape:collect="always"
       id="linearGradient853">
      <stop
         style="stop-color:#000000;stop-opacity:1"
         offset="0"
         id="stop849" />
      <stop
         style="stop-color:#000000;stop-opacity:0.40469208"
         offset="1"
         id="stop851" />
    </linearGradient>
    <linearGradient
       inkscape:collect="always"
       xlink:href="#linearGradient853"
       id="linearGradient855"
       x1="-36.626339"
       y1="88.853386"
       x2="80.756592"
       y2="88.853386"
       gradientUnits="userSpaceOnUse" />
    <filter
       style="color-interpolation-filters:sRGB"
       inkscape:label="Drop Shadow"
       id="filter1121">
      <feFlood
         flood-opacity="0.498039"
         flood-color="rgb(0,0,0)"
         result="flood"
         id="feFlood1111" />
      <feComposite
         in="flood"
         in2="SourceGraphic"
         operator="in"
         result="composite1"
         id="feComposite1113" />
      <feGaussianBlur
         in="composite1"
         stdDeviation="11.4114"
         result="blur"
         id="feGaussianBlur1115" />
      <feOffset
         dx="6"
         dy="6"
         result="offset"
         id="feOffset1117" />
      <feComposite
         in="SourceGraphic"
         in2="offset"
         operator="over"
         result="composite2"
         id="feComposite1119" />
    </filter>
    <filter
       style="color-interpolation-filters:sRGB;"
       inkscape:label="Drop Shadow"
       id="filter1147">
      <feFlood
         flood-opacity="0.498039"
         flood-color="rgb(0,0,0)"
         result="flood"
         id="feFlood1137" />
      <feComposite
         in="flood"
         in2="SourceGraphic"
         operator="in"
         result="composite1"
         id="feComposite1139" />
      <feGaussianBlur
         in="composite1"
         stdDeviation="6.60661"
         result="blur"
         id="feGaussianBlur1141" />
      <feOffset
         dx="6"
         dy="6"
         result="offset"
         id="feOffset1143" />
      <feComposite
         in="SourceGraphic"
         in2="offset"
         operator="over"
         result="composite2"
         id="feComposite1145" />
    </filter>
    <filter
       style="color-interpolation-filters:sRGB;"
       inkscape:label="Drop Shadow"
       id="filter1159">
      <feFlood
         flood-opacity="0.498039"
         flood-color="rgb(0,0,0)"
         result="flood"
         id="feFlood1149" />
      <feComposite
         in="flood"
         in2="SourceGraphic"
         operator="in"
         result="composite1"
         id="feComposite1151" />
      <feGaussianBlur
         in="composite1"
         stdDeviation="3"
         result="blur"
         id="feGaussianBlur1153" />
      <feOffset
         dx="6"
         dy="6"
         result="offset"
         id="feOffset1155" />
      <feComposite
         in="SourceGraphic"
         in2="offset"
         operator="over"
         result="composite2"
         id="feComposite1157" />
    </filter>
  </defs>
  <sodipodi:namedview
     id="base"
     pagecolor="#ffffff"
     bordercolor="#666666"
     borderopacity="1.0"
     inkscape:pageopacity="0.0"
     inkscape:pageshadow="2"
     inkscape:zoom="1.1007895"
     inkscape:cx="270.526"
     inkscape:cy="257.16271"
     inkscape:document-units="mm"
     inkscape:current-layer="layer1"
     inkscape:document-rotation="0"
     showgrid="false"
     fit-margin-top="0"
     fit-margin-left="0"
     fit-margin-right="0"
     fit-margin-bottom="0"
     inkscape:window-width="1904"
     inkscape:window-height="1155"
     inkscape:window-x="0"
     inkscape:window-y="23"
     inkscape:window-maximized="0" />
  <metadata
     id="metadata5">
    <rdf:RDF>
      <cc:Work
         rdf:about="">
        <dc:format>image/svg+xml</dc:format>
        <dc:type
           rdf:resource="http://purl.org/dc/dcmitype/StillImage" />
        <dc:title />
      </cc:Work>
    </rdf:RDF>
  </metadata>
  <g
     inkscape:label="Layer 1"
     inkscape:groupmode="layer"
     id="layer1"
     transform="translate(50.11964,-17.764881)">
    <rect
       style="opacity:0.990354;fill:url(#linearGradient855);fill-opacity:1;stroke:none;stroke-width:0.0352777;stroke-miterlimit:10;filter:url(#filter1159)"
       id="rect847"
       width="114.75319"
       height="114.94225"
       x="-35.919453"
       y="31.382257"
       ry="23.820269" />
    <path
       id="path972"
       style="color:#000000;font-style:normal;font-variant:normal;font-weight:normal;font-stretch:normal;font-size:medium;line-height:normal;font-family:sans-serif;font-variant-ligatures:normal;font-variant-position:normal;font-variant-caps:normal;font-variant-numeric:normal;font-variant-alternates:normal;font-variant-east-asian:normal;font-feature-settings:normal;font-variation-settings:normal;text-indent:0;text-align:start;text-decoration:none;text-decoration-line:none;text-decoration-style:solid;text-decoration-color:#000000;letter-spacing:normal;word-spacing:normal;text-transform:none;writing-mode:lr-tb;direction:ltr;text-orientation:mixed;dominant-baseline:auto;baseline-shift:baseline;text-anchor:start;white-space:normal;shape-padding:0;shape-margin:0;inline-size:0;clip-rule:nonzero;display:inline;overflow:visible;visibility:visible;opacity:0.990354;isolation:auto;mix-blend-mode:normal;color-interpolation:sRGB;color-interpolation-filters:linearRGB;solid-color:#000000;solid-opacity:1;vector-effect:none;fill:#ffffff;fill-opacity:1;fill-rule:nonzero;stroke:none;stroke-width:8.00001;stroke-linecap:butt;stroke-linejoin:miter;stroke-miterlimit:10;stroke-dasharray:none;stroke-dashoffset:0;stroke-opacity:1;color-rendering:auto;image-rendering:auto;shape-rendering:auto;text-rendering:auto;enable-background:accumulate;stop-color:#000000"
       d="m 70.714844,182.75195 c -18.790224,0.03 -37.762066,3.66387 -55.867188,11.16993 1.33984,2.34202 2.681419,4.68314 4.023438,7.02343 17.594877,-7.15007 36.019752,-10.44859 54.214844,-10.17969 0.01269,-2.66306 0.02179,-5.32572 0.0293,-7.98828 -0.799823,-0.0118 -1.599823,-0.0267 -2.40039,-0.0254 z m 18.396484,1.13086 c 0.0012,2.68195 0.003,5.36419 -0.0078,8.04688 17.406592,2.27605 34.299082,7.81743 49.712892,16.37304 1.33663,-2.30428 2.67304,-4.60806 4.01367,-6.91015 -16.63606,-9.24377 -34.90553,-15.17792 -53.71875,-17.50977 z M 0.36132812,200.87305 c -0.9673804,0.53032 -1.93236502,1.06671 -2.89257812,1.62109 -16.852633,9.72987 -31.046774,22.30071 -42.345703,36.75195 2.325842,1.35292 4.649033,2.71115 6.974609,4.06446 10.575449,-13.28843 23.775697,-24.85642 39.3828128,-33.86719 0.9539392,-0.55076 1.9136889,-1.08563 2.875,-1.61133 -1.3342523,-2.31798 -2.6671578,-4.63617 -3.99414068,-6.95898 z M 156.40039,209.93164 c -1.34666,2.3126 -2.69914,4.62253 -4.04883,6.93359 13.56198,9.72646 25.55374,22.04677 35.18164,36.73633 2.33052,-1.32951 4.65887,-2.66234 6.98633,-3.99609 -10.36958,-15.92987 -23.38184,-29.23421 -38.11914,-39.67383 z m -210.468749,42.49414 c -11.993612,19.38941 -19.31619,41.29939 -21.458985,63.86914 2.675106,7.4e-4 5.348272,0.003 8.023438,0.0117 2.116085,-21.18189 9.062187,-41.72276 20.376953,-59.9082 -2.301434,-1.3474 -4.612659,-2.6771 -6.941406,-3.97266 z M 202.51953,263.4668 c -2.32726,1.33068 -4.65743,2.65746 -6.98437,3.98828 7.91126,15.68227 12.58887,32.22928 14.23437,48.83789 2.67864,0.004 5.35483,0.0122 8.0332,0.0215 -1.66773,-17.98169 -6.67809,-35.90198 -15.2832,-52.84765 z M -74.375,332.2832 c -0.596608,-0.002 -1.192534,0.005 -1.789062,0.004 0.285229,20.51553 4.861383,41.20713 14.101562,60.71289 2.331111,-1.32997 4.661798,-2.66043 6.990234,-3.99414 -8.548353,-18.24198 -12.806578,-37.54872 -13.103515,-56.69336 -2.066787,-0.0108 -4.13275,-0.0211 -6.199219,-0.0293 z m 284.79492,0.0176 c -0.30188,18.03366 -4.1057,35.83424 -11.13672,52.36524 2.32011,1.34012 4.63986,2.68079 6.95508,4.03125 7.68873,-17.7625 11.8478,-36.93533 12.17188,-56.35938 -2.66337,-0.008 -5.32658,-0.0235 -7.99024,-0.0371 z m -18.26562,66.75195 c -7.90666,13.89296 -18.27375,26.55172 -30.91992,37.24805 1.35786,2.34689 2.71605,4.69382 4.06445,7.04688 13.86874,-11.50747 25.20771,-25.2313 33.79687,-40.3418 -2.30132,-1.34072 -4.61127,-2.6666 -6.9414,-3.95313 z m -239.628909,4.04297 c -2.324305,1.32723 -4.64945,2.65397 -6.972657,3.98242 12.070511,19.70075 28.096997,35.59029 46.4570316,47.25 1.3336605,-2.30746 2.6689334,-4.61439 4.0097656,-6.91796 C -21.141999,436.4394 -36.132129,421.53867 -47.474609,403.0957 Z m 195.810549,42.88282 c -2.45992,1.63487 -4.98049,3.20954 -7.57422,4.70703 -20.13083,11.62254 -41.94481,17.6479 -63.650392,18.57031 -0.0078,2.66559 -0.01714,5.3306 -0.02539,7.99609 23.090522,-0.90926 46.300722,-7.26839 67.689452,-19.61718 2.58315,-1.49138 5.09499,-3.05654 7.55273,-4.67774 -1.33317,-2.32435 -2.6623,-4.65203 -3.99218,-6.97851 z M 9.9921875,455.25391 c -1.3445905,2.30148 -2.6868202,4.60457 -4.0273437,6.9082 17.2195092,8.46949 35.9602112,13.52622 55.1015622,14.85742 0.0065,-2.66781 0.0164,-5.33565 0.0293,-8.00391 -17.74195,-1.29259 -35.111437,-5.96654 -51.1035155,-13.76171 z"
       transform="scale(0.26458333)" />
    <g
       id="g1029">
      <path
         id="rect920"
         style="opacity:0.990354;fill:#ff0000;fill-opacity:1;stroke:none;stroke-width:1.13587;stroke-miterlimit:10;stroke-dasharray:none;stroke-opacity:1"
         transform="rotate(-30)"
         d="m -24.372373,39.931183 c 0.586317,0 1.058334,0.472017 1.058334,1.058333 v 12.440165 c 0,0.586317 -0.472017,1.058333 -1.058334,1.058333 -0.586316,0 -1.058333,-0.472016 -1.058333,-1.058333 V 40.989516 c 0,-0.586316 0.472017,-1.058333 1.058333,-1.058333 z m -22.385937,4.836094 c 0.507765,-0.293159 1.152552,-0.120389 1.44571,0.387376 l 6.220083,10.773499 c 0.293158,0.507766 0.120388,1.152552 -0.387378,1.44571 -0.507764,0.293158 -1.152551,0.120389 -1.44571,-0.387376 l -6.220082,-10.773499 c -0.293159,-0.507766 -0.120388,-1.152552 0.387377,-1.44571 z M -65.295609,61.38149 c 0.293159,-0.507765 0.937945,-0.680535 1.445711,-0.387376 l 10.773498,6.220082 c 0.507765,0.293158 0.680536,0.937945 0.387378,1.44571 -0.293158,0.507764 -0.937946,0.680535 -1.445711,0.387376 L -64.908231,62.8272 c -0.507766,-0.293158 -0.680536,-0.937946 -0.387378,-1.44571 z M -72.4422,83.961167 c 0,-0.586316 0.472017,-1.058333 1.058334,-1.058333 h 12.440164 c 0.586317,0 1.058334,0.472017 1.058334,1.058333 0,0.586317 -0.472017,1.058334 -1.058334,1.058334 h -12.440164 c -0.586317,0 -1.058334,-0.472017 -1.058334,-1.058334 z m 6.40463,23.902523 c -0.293158,-0.50776 -0.120394,-1.15254 0.387374,-1.4457 l 10.773499,-6.22009 c 0.507766,-0.293156 1.152553,-0.12039 1.445711,0.38738 0.293158,0.50776 0.120388,1.15255 -0.387377,1.44571 l -10.773499,6.22008 c -0.507768,0.29316 -1.152549,0.12039 -1.445708,-0.38738 z m 15.574895,16.10406 c -0.507766,-0.29316 -0.680535,-0.93795 -0.38738,-1.44571 l 6.220085,-10.7735 c 0.293155,-0.50776 0.937944,-0.68053 1.44571,-0.38737 0.507764,0.29316 0.680533,0.93794 0.387378,1.4457 l -6.220085,10.77351 c -0.293155,0.50776 -0.937944,0.68053 -1.445708,0.38737 z m 27.568683,6.97192 c -0.586317,0 -1.058334,-0.47202 -1.058334,-1.05834 v -12.44016 c 0,-0.58632 0.472017,-1.05833 1.058334,-1.05833 0.586316,0 1.058333,0.47201 1.058333,1.05833 v 12.44016 c 0,0.58632 -0.472017,1.05834 -1.058333,1.05834 z m 20.6237868,-7.07554 c -0.5077645,0.29316 -1.1525532,0.12038 -1.4457132,-0.38738 l -6.220081,-10.7735 c -0.2931576,-0.50776 -0.1203876,-1.15255 0.3873767,-1.44571 0.5077654,-0.29316 1.1525518,-0.12039 1.4457098,0.38738 l 6.220081,10.77349 c 0.29316,0.50777 0.1203921,1.15256 -0.3873733,1.44572 z M 12.071707,106.04979 c -0.293158,0.50777 -0.937945,0.68054 -1.44571,0.38738 l -10.7734989,-6.22008 c -0.50776455,-0.293161 -0.68053476,-0.937948 -0.38737676,-1.445713 0.2931585,-0.507765 0.93794571,-0.680536 1.44571026,-0.387378 l 10.7734994,6.220081 c 0.507765,0.29316 0.680534,0.93795 0.387376,1.44571 z m 5.629974,-21.011118 c 0,0.586317 -0.472017,1.058334 -1.058333,1.058334 H 4.2031831 c -0.5863167,0 -1.0583333,-0.472017 -1.0583333,-1.058334 0,-0.586316 0.4720166,-1.058333 1.0583333,-1.058333 H 16.643348 c 0.586316,0 1.058333,0.472017 1.058333,1.058333 z M 12.07182,64.027521 c 0.293158,0.507765 0.120389,1.152552 -0.387377,1.44571 L 0.9109442,71.693314 c -0.50776455,0.293158 -1.15255176,0.120387 -1.44570976,-0.387377 -0.2931585,-0.507766 -0.12038829,-1.152553 0.38737626,-1.445711 L 10.62611,63.640144 c 0.507765,-0.293159 1.152551,-0.120388 1.44571,0.387377 z M -3.3093576,48.646261 c 0.5077646,0.293158 0.6805348,0.937946 0.3873768,1.44571 L -9.1420633,60.86547 c -0.2931585,0.507766 -0.9379457,0.680535 -1.4457097,0.387377 -0.507765,-0.293159 -0.680536,-0.937945 -0.387378,-1.44571 l 6.2200828,-10.773499 c 0.293158,-0.507765 0.9379452,-0.680535 1.4457106,-0.387377 z m 0,0 c 0.5077646,0.293158 0.6805348,0.937946 0.3873768,1.44571 L -9.1420633,60.86547 c -0.2931585,0.507766 -0.9379457,0.680535 -1.4457097,0.387377 -0.507765,-0.293159 -0.680536,-0.937945 -0.387378,-1.44571 l 6.2200828,-10.773499 c 0.293158,-0.507765 0.9379452,-0.680535 1.4457106,-0.387377 z" />
      <path
         id="path1045"
         style="opacity:0.990354;fill:#ff0000;fill-opacity:1;stroke:none;stroke-width:1.13587;stroke-miterlimit:10;stroke-dasharray:none;stroke-opacity:1"
         transform="rotate(-30)"
         d="m -24.372373,39.931183 c 0.586317,0 1.058334,0.472017 1.058334,1.058333 v 12.440165 c 0,0.586317 -0.472017,1.058333 -1.058334,1.058333 -0.586316,0 -1.058333,-0.472016 -1.058333,-1.058333 V 40.989516 c 0,-0.586316 0.472017,-1.058333 1.058333,-1.058333 z m -22.385937,4.836094 c 0.507765,-0.293159 1.152552,-0.120389 1.44571,0.387376 l 6.220083,10.773499 c 0.293158,0.507766 0.120388,1.152552 -0.387378,1.44571 -0.507764,0.293158 -1.152551,0.120389 -1.44571,-0.387376 l -6.220082,-10.773499 c -0.293159,-0.507766 -0.120388,-1.152552 0.387377,-1.44571 z M -65.295609,61.38149 c 0.293159,-0.507765 0.937945,-0.680535 1.445711,-0.387376 l 10.773498,6.220082 c 0.507765,0.293158 0.680536,0.937945 0.387378,1.44571 -0.293158,0.507764 -0.937946,0.680535 -1.445711,0.387376 L -64.908231,62.8272 c -0.507766,-0.293158 -0.680536,-0.937946 -0.387378,-1.44571 z M -72.4422,83.961167 c 0,-0.586316 0.472017,-1.058333 1.058334,-1.058333 h 12.440164 c 0.586317,0 1.058334,0.472017 1.058334,1.058333 0,0.586317 -0.472017,1.058334 -1.058334,1.058334 h -12.440164 c -0.586317,0 -1.058334,-0.472017 -1.058334,-1.058334 z m 6.40463,23.902523 c -0.293158,-0.50776 -0.120394,-1.15254 0.387374,-1.4457 l 10.773499,-6.22009 c 0.507766,-0.293156 1.152553,-0.12039 1.445711,0.38738 0.293158,0.50776 0.120388,1.15255 -0.387377,1.44571 l -10.773499,6.22008 c -0.507768,0.29316 -1.152549,0.12039 -1.445708,-0.38738 z m 15.574895,16.10406 c -0.507766,-0.29316 -0.680535,-0.93795 -0.38738,-1.44571 l 6.220085,-10.7735 c 0.293155,-0.50776 0.937944,-0.68053 1.44571,-0.38737 0.507764,0.29316 0.680533,0.93794 0.387378,1.4457 l -6.220085,10.77351 c -0.293155,0.50776 -0.937944,0.68053 -1.445708,0.38737 z m 27.568683,6.97192 c -0.586317,0 -1.058334,-0.47202 -1.058334,-1.05834 v -12.44016 c 0,-0.58632 0.472017,-1.05833 1.058334,-1.05833 0.586316,0 1.058333,0.47201 1.058333,1.05833 v 12.44016 c 0,0.58632 -0.472017,1.05834 -1.058333,1.05834 z m 20.6237868,-7.07554 c -0.5077645,0.29316 -1.1525532,0.12038 -1.4457132,-0.38738 l -6.220081,-10.7735 c -0.2931576,-0.50776 -0.1203876,-1.15255 0.3873767,-1.44571 0.5077654,-0.29316 1.1525518,-0.12039 1.4457098,0.38738 l 6.220081,10.77349 c 0.29316,0.50777 0.1203921,1.15256 -0.3873733,1.44572 z M 12.071707,106.04979 c -0.293158,0.50777 -0.937945,0.68054 -1.44571,0.38738 l -10.7734989,-6.22008 c -0.50776455,-0.293161 -0.68053476,-0.937948 -0.38737676,-1.445713 0.2931585,-0.507765 0.93794571,-0.680536 1.44571026,-0.387378 l 10.7734994,6.220081 c 0.507765,0.29316 0.680534,0.93795 0.387376,1.44571 z m 5.629974,-21.011118 c 0,0.586317 -0.472017,1.058334 -1.058333,1.058334 H 4.2031831 c -0.5863167,0 -1.0583333,-0.472017 -1.0583333,-1.058334 0,-0.586316 0.4720166,-1.058333 1.0583333,-1.058333 H 16.643348 c 0.586316,0 1.058333,0.472017 1.058333,1.058333 z M 12.07182,64.027521 c 0.293158,0.507765 0.120389,1.152552 -0.387377,1.44571 L 0.9109442,71.693314 c -0.50776455,0.293158 -1.15255176,0.120387 -1.44570976,-0.387377 -0.2931585,-0.507766 -0.12038829,-1.152553 0.38737626,-1.445711 L 10.62611,63.640144 c 0.507765,-0.293159 1.152551,-0.120388 1.44571,0.387377 z M -3.3093576,48.646261 c 0.5077646,0.293158 0.6805348,0.937946 0.3873768,1.44571 L -9.1420633,60.86547 c -0.2931585,0.507766 -0.9379457,0.680535 -1.4457097,0.387377 -0.507765,-0.293159 -0.680536,-0.937945 -0.387378,-1.44571 l 6.2200828,-10.773499 c 0.293158,-0.507765 0.9379452,-0.680535 1.4457106,-0.387377 z m 0,0 c 0.5077646,0.293158 0.6805348,0.937946 0.3873768,1.44571 L -9.1420633,60.86547 c -0.2931585,0.507766 -0.9379457,0.680535 -1.4457097,0.387377 -0.507765,-0.293159 -0.680536,-0.937945 -0.387378,-1.44571 l 6.2200828,-10.773499 c 0.293158,-0.507765 0.9379452,-0.680535 1.4457106,-0.387377 z" />
    </g>
  </g>
</svg>
